<?xml version="1.0" standalone="no"?>
<!DOCTYPE svg PUBLIC "-//W3C//DTD SVG 20010904//EN"
 "http://www.w3.org/TR/2001/REC-SVG-20010904/DTD/svg10.dtd">
<svg version="1.0" xmlns="http://www.w3.org/2000/svg"
 width="3600.000000pt" height="3152.000000pt" viewBox="0 0 3600.000000 3152.000000"
 preserveAspectRatio="xMidYMid meet">

<g transform="translate(0.000000,3152.000000) scale(0.100000,-0.100000)"
fill="#000000" stroke="none">
<path d="M9950 30815 c-232 -28 -283 -40 -557 -131 -437 -146 -653 -232 -1433
-569 -268 -116 -295 -126 -305 -110 -21 38 -104 132 -158 181 -85 78 -165 127
-258 159 -78 27 -95 29 -234 29 -164 0 -253 -17 -385 -73 -167 -70 -335 -224
-413 -378 -63 -124 -80 -287 -39 -378 62 -136 185 -198 392 -197 242 1 515 89
951 307 72 37 132 65 133 63 7 -9 47 -164 60 -233 63 -324 43 -942 -54 -1585
-5 -36 -14 -94 -19 -130 -26 -176 -116 -644 -129 -665 -3 -5 -15 -17 -26 -25
-12 -8 -74 -61 -139 -118 -207 -181 -404 -425 -482 -595 -103 -225 -95 -438
24 -619 53 -80 109 -137 195 -194 31 -20 56 -41 56 -46 0 -5 -9 -42 -20 -81
-38 -135 -159 -582 -199 -736 -30 -115 -38 -158 -29 -168 13 -16 43 -17 55 0
5 6 43 131 83 277 106 387 180 653 185 668 3 9 17 6 52 -11 54 -27 206 -78
298 -101 284 -68 690 -53 1060 40 392 99 680 199 1002 351 452 212 850 478
1159 775 538 518 784 1148 629 1614 -33 99 -139 256 -220 327 -147 129 -358
221 -610 268 -99 18 -156 22 -325 22 -278 0 -433 -23 -735 -108 -87 -25 -160
-43 -162 -41 -2 2 47 38 109 79 250 166 450 328 654 532 309 308 521 615 611
885 25 77 28 98 28 225 0 171 -13 216 -91 314 -64 80 -127 119 -244 149 -164
44 -277 50 -470 27z m271 -194 c61 -23 137 -89 164 -142 22 -41 32 -152 23
-244 -10 -112 -76 -287 -175 -467 -237 -431 -557 -790 -926 -1036 -90 -61
-109 -70 -164 -75 -160 -17 -274 -89 -333 -211 -47 -100 -49 -185 -4 -203 9
-3 62 17 128 50 137 68 264 116 463 173 244 70 421 95 683 95 501 1 851 -153
991 -436 56 -115 75 -311 44 -472 -48 -252 -212 -582 -415 -837 -185 -232
-537 -547 -815 -729 -347 -226 -716 -395 -1150 -526 -648 -195 -1048 -184
-1375 39 -30 21 -65 48 -77 61 l-22 24 45 165 c55 203 189 719 243 935 38 152
42 162 78 194 42 37 152 112 226 155 l47 28 0 -79 c0 -77 18 -232 40 -345 60
-310 269 -508 536 -508 171 0 281 40 253 92 -12 22 -49 23 -104 3 -49 -17
-150 -19 -196 -3 -111 37 -238 197 -285 357 -32 112 -46 355 -29 519 8 85 -7
74 210 147 215 72 457 131 745 181 138 24 181 27 395 27 218 0 249 -2 335 -23
156 -38 221 -39 234 -3 14 36 -118 128 -237 164 -161 49 -486 49 -762 -1 -33
-6 -85 -15 -115 -20 -161 -28 -543 -134 -686 -190 -42 -17 -78 -29 -81 -26 -6
6 62 334 113 540 145 586 435 1421 627 1800 59 117 68 143 61 165 -14 39 -65
48 -150 28 -170 -42 -217 -92 -313 -335 -181 -460 -355 -1009 -445 -1407 -64
-284 -95 -479 -133 -829 l-8 -68 -124 -64 c-68 -35 -125 -63 -127 -62 -1 2 9
50 22 108 56 247 132 677 168 950 36 280 40 345 41 670 0 279 -3 353 -18 440
-20 114 -57 269 -82 339 -12 36 -13 47 -3 57 15 14 837 433 1004 511 364 170
799 313 1054 346 19 3 100 4 180 2 119 -2 155 -6 201 -24z m-3086 -336 c97
-33 156 -69 237 -144 75 -69 168 -181 168 -201 0 -11 -425 -179 -595 -236
-189 -63 -275 -84 -373 -90 -139 -10 -219 24 -243 105 -27 90 39 277 136 388
81 92 201 156 355 189 84 17 248 12 315 -11z m285 -3591 c-29 -141 -46 -215
-134 -574 -30 -124 -60 -253 -67 -288 -7 -34 -18 -61 -24 -59 -16 5 -80 138
-93 196 -49 212 37 476 231 716 54 67 100 116 104 111 2 -2 -6 -48 -17 -102z"/>
<path d="M16005 29083 c-235 -13 -489 -93 -720 -226 -229 -132 -367 -241 -581
-458 -195 -199 -338 -387 -423 -557 -19 -37 -25 -41 -46 -36 -29 7 -64 -26
-130 -121 -114 -165 -386 -414 -636 -581 -112 -75 -296 -170 -384 -199 -145
-48 -297 -50 -386 -4 -117 59 -188 221 -189 426 l0 93 118 59 c162 81 283 164
389 268 173 170 265 331 294 513 18 117 -12 240 -74 308 -85 92 -273 92 -430
0 -198 -115 -423 -434 -526 -746 -75 -225 -85 -281 -86 -482 0 -166 2 -193 23
-260 63 -200 154 -306 313 -361 79 -27 234 -29 349 -5 235 52 513 191 787 394
227 169 363 294 478 441 26 34 48 61 49 61 1 0 1 -69 1 -153 l0 -153 40 -79
c46 -92 77 -118 162 -135 103 -22 228 16 375 112 112 72 297 256 498 493 74
87 148 173 163 189 l28 31 -7 -65 c-3 -36 -22 -200 -43 -365 l-36 -300 -120
-42 c-459 -164 -1010 -382 -1310 -518 -568 -259 -950 -470 -1300 -718 -576
-408 -934 -855 -1011 -1264 -23 -121 -15 -311 16 -403 51 -151 117 -250 225
-340 82 -68 139 -102 235 -139 116 -44 167 -51 415 -53 213 -1 239 1 355 25
406 85 777 257 1199 555 394 279 791 730 1071 1217 165 285 326 694 440 1110
40 147 100 421 100 460 1 38 17 46 141 71 68 13 147 29 176 34 28 6 105 11
170 11 125 -1 178 -12 234 -52 86 -61 76 -188 -25 -307 -46 -55 -49 -92 -7
-92 66 0 187 189 198 308 5 53 2 69 -21 117 -34 68 -89 108 -195 143 -137 44
-424 42 -610 -5 -21 -5 -23 -3 -17 23 6 28 39 243 56 369 64 456 86 650 99
874 5 92 5 164 0 178 -29 76 -282 65 -353 -16 -16 -17 -21 -49 -32 -189 -14
-194 -42 -342 -85 -448 -56 -142 -77 -176 -198 -313 -198 -224 -567 -433 -677
-382 -40 18 -64 68 -64 137 0 139 63 299 200 503 315 470 757 813 1140 885
263 49 464 21 528 -75 33 -48 25 -110 -29 -215 -44 -86 -47 -117 -13 -122 28
-4 68 44 111 134 103 215 40 379 -162 422 -57 12 -176 19 -250 15z m-2890
-600 c27 -26 35 -60 35 -141 -1 -234 -141 -486 -360 -651 -77 -57 -247 -157
-255 -149 -9 9 70 248 129 391 159 384 366 636 451 550z m2225 -1555 c-64
-444 -232 -980 -429 -1378 -257 -517 -693 -1021 -1126 -1303 -270 -176 -523
-280 -790 -326 -365 -63 -646 -14 -838 144 -76 63 -116 120 -159 229 -30 77
-32 88 -32 221 0 100 5 161 17 214 103 431 438 838 994 1204 333 220 668 392
1228 632 325 139 1134 456 1144 449 2 -2 -2 -40 -9 -86z"/>
<path d="M21460 28944 c-106 -22 -228 -81 -336 -165 -120 -92 -296 -283 -372
-404 -52 -81 -134 -232 -163 -297 -26 -59 -48 -85 -202 -236 -310 -304 -356
-342 -515 -422 -203 -103 -388 -113 -468 -27 -37 40 -71 126 -80 201 -7 55 9
249 27 346 29 150 104 462 150 618 46 161 51 237 18 247 -35 11 -96 -15 -152
-64 -131 -115 -740 -777 -941 -1023 -39 -48 -72 -81 -74 -74 -5 21 67 433 94
541 59 236 142 447 225 573 l21 32 -38 16 c-56 24 -271 38 -392 27 -87 -9
-105 -14 -148 -43 -97 -65 -134 -102 -192 -188 -71 -107 -102 -180 -204 -481
-86 -255 -138 -368 -229 -501 -109 -159 -193 -220 -332 -241 -86 -13 -133 1
-164 47 -24 37 -23 127 2 174 49 93 60 225 22 281 -42 63 -120 85 -194 54 -84
-35 -149 -110 -163 -187 -4 -22 -4 -82 0 -132 17 -197 106 -340 257 -412 66
-32 83 -36 156 -36 153 -1 263 55 423 216 158 159 287 363 397 626 42 101 57
149 93 310 68 300 167 419 347 420 37 0 67 -2 67 -4 0 -2 -22 -50 -49 -107
-153 -322 -255 -876 -210 -1149 5 -35 15 -70 21 -77 18 -22 80 -34 121 -22 60
16 88 47 94 104 7 61 33 96 247 320 83 88 169 180 191 203 22 24 72 72 111
107 l70 64 -4 -219 c-4 -175 -1 -238 13 -321 31 -189 94 -311 195 -380 262
-179 756 3 1211 447 42 41 78 74 80 74 2 0 4 -57 4 -128 1 -147 14 -210 62
-304 59 -113 152 -186 288 -223 95 -26 299 -31 430 -10 414 64 983 324 1255
572 33 30 73 56 98 64 45 13 151 97 346 272 293 263 575 450 735 487 69 16
202 14 269 -4 335 -92 300 -519 -73 -891 -163 -163 -309 -263 -509 -350 -137
-58 -204 -76 -295 -77 -120 0 -177 33 -201 116 -21 74 -9 126 49 217 60 94 71
126 46 135 -44 17 -126 -59 -220 -204 -83 -130 -108 -228 -79 -318 23 -73 72
-124 150 -155 53 -21 74 -23 214 -23 176 1 274 18 450 79 259 89 348 150 635
440 369 372 657 626 744 656 24 8 35 8 46 -1 19 -16 19 -78 1 -145 -15 -56
-112 -295 -239 -585 -95 -217 -144 -363 -153 -454 -7 -77 7 -100 60 -98 145 5
353 135 764 477 29 24 34 26 28 10 -11 -29 -25 -118 -32 -210 -11 -140 29
-288 102 -374 33 -39 134 -109 177 -123 140 -43 346 -59 498 -39 102 13 249
50 357 88 181 64 488 237 672 378 32 25 61 45 64 45 3 0 -4 -21 -15 -47 -39
-92 -60 -187 -66 -303 -6 -125 5 -188 52 -280 25 -48 107 -132 167 -168 60
-37 203 -81 322 -98 360 -53 968 61 1365 258 175 86 241 142 241 202 0 38 -1
38 -32 32 -17 -3 -72 -31 -122 -60 -132 -79 -262 -135 -446 -194 -144 -46
-265 -76 -450 -112 -30 -6 -127 -14 -215 -17 -129 -5 -176 -3 -244 11 -108 22
-195 62 -248 114 -104 102 -109 298 -12 521 l21 49 96 6 c235 15 359 40 532
110 133 53 197 90 285 166 86 75 153 160 190 240 25 55 29 78 30 150 0 69 -4
93 -22 127 -40 74 -129 125 -250 141 -292 40 -719 -217 -1025 -618 -42 -56
-54 -65 -84 -67 -42 -3 -66 -15 -129 -68 -125 -106 -418 -292 -546 -346 -236
-101 -381 -134 -594 -134 -182 0 -244 13 -317 68 -65 48 -110 144 -110 234 -2
340 348 786 742 945 98 40 235 50 305 23 47 -17 75 -53 75 -94 0 -35 -36 -119
-80 -186 -44 -68 -48 -98 -13 -103 61 -9 231 223 277 377 22 73 20 125 -7 191
-44 108 -148 156 -332 153 -178 -2 -305 -51 -535 -207 -128 -87 -371 -319
-456 -437 -87 -121 -124 -159 -247 -255 -234 -182 -401 -275 -445 -248 -34 21
-25 91 27 221 11 29 115 245 231 480 235 477 283 590 278 661 l-3 47 -53 -2
c-70 -3 -172 -57 -322 -169 -123 -93 -163 -126 -436 -365 -208 -181 -208 -180
-193 -142 17 44 39 182 39 243 0 195 -75 338 -220 423 -66 38 -181 67 -292 74
-152 9 -262 -19 -463 -118 -185 -91 -386 -240 -727 -536 -91 -80 -136 -112
-161 -117 -25 -5 -61 -30 -119 -82 -196 -178 -555 -376 -878 -484 -261 -87
-512 -94 -644 -16 -124 73 -171 239 -132 466 9 52 20 98 24 102 4 4 68 23 142
42 172 44 253 74 365 138 213 120 367 271 440 431 32 70 58 192 50 241 -15 98
-72 178 -153 212 -37 15 -186 27 -232 18z m207 -165 c22 -19 24 -82 4 -161
-64 -247 -289 -478 -563 -577 -99 -36 -198 -64 -205 -58 -3 4 18 48 47 99 196
345 486 675 622 708 36 9 76 4 95 -11z m6856 -1020 c48 -59 -22 -213 -167
-366 -151 -160 -377 -256 -656 -279 l-84 -7 33 42 c189 238 498 511 675 596
107 50 165 55 199 14z"/>
<path d="M12840 23703 c-36 -2 -123 -10 -195 -19 -272 -32 -258 -30 -455 -65
-104 -18 -285 -59 -432 -99 -21 -5 -55 -14 -75 -20 -132 -35 -287 -83 -358
-111 -11 -4 -67 -24 -125 -43 -58 -20 -114 -40 -125 -45 -11 -5 -31 -13 -45
-18 -14 -6 -45 -20 -70 -31 -25 -12 -70 -31 -100 -42 -54 -19 -436 -207 -515
-252 -22 -13 -76 -43 -120 -67 -44 -24 -88 -51 -98 -59 -9 -8 -26 -20 -37 -26
-148 -83 -478 -319 -693 -496 -222 -183 -516 -475 -712 -706 -171 -202 -212
-254 -340 -434 -46 -65 -215 -322 -238 -362 -13 -23 -44 -77 -69 -118 -65
-109 -200 -371 -246 -475 -22 -49 -51 -114 -66 -144 -14 -30 -26 -58 -26 -63
0 -5 -8 -27 -19 -51 -10 -23 -29 -69 -41 -102 -12 -33 -30 -80 -40 -105 -37
-91 -117 -347 -170 -545 -11 -38 -26 -92 -34 -120 -9 -27 -32 -147 -51 -265
-19 -118 -40 -241 -45 -272 -26 -141 -44 -326 -61 -635 -17 -308 11 -825 60
-1108 12 -71 28 -222 41 -395 5 -69 18 -159 29 -201 38 -141 340 -1033 356
-1048 13 -14 71 -17 398 -23 562 -9 1265 -26 1402 -33 66 -3 320 -11 565 -16
645 -15 1211 -28 1650 -39 212 -5 574 -14 805 -19 231 -6 508 -15 615 -20 233
-12 540 -14 540 -3 0 4 -9 36 -20 71 -43 137 -54 211 -54 381 0 181 12 257 65
414 51 153 92 220 198 326 154 154 287 206 496 197 128 -5 197 -26 293 -89
177 -115 294 -330 353 -648 21 -113 18 -481 -4 -585 -10 -44 -20 -87 -23 -96
-4 -15 20 -17 248 -23 139 -3 420 -10 623 -16 1142 -28 1127 -28 1225 -14 151
21 386 18 500 -7 119 -27 279 -36 795 -49 226 -5 588 -14 805 -19 217 -5 415
-13 439 -17 41 -7 44 -6 37 12 -37 90 -68 186 -88 274 -20 92 -23 130 -23 310
1 207 5 244 50 415 60 227 204 486 350 629 103 101 259 205 370 245 161 58
344 73 485 39 70 -17 180 -78 230 -128 158 -158 240 -424 240 -781 0 -362 -83
-664 -258 -942 -34 -54 -62 -99 -62 -101 0 -4 223 -13 547 -22 l213 -7 97 41
c127 52 201 71 328 82 169 15 288 -17 380 -100 l40 -38 120 -6 c66 -4 305 -11
530 -16 767 -17 1280 -31 1405 -39 69 -4 253 -9 409 -10 157 -1 289 -5 294 -8
5 -3 206 -10 446 -15 434 -9 825 -18 1566 -38 635 -16 1070 -27 1071 -26 8 6
124 296 163 406 28 80 55 152 59 160 9 15 82 244 108 335 30 107 38 132 56
189 11 32 24 79 29 105 6 25 14 62 18 81 32 132 96 456 111 555 5 39 17 117
27 175 14 90 17 202 19 770 2 526 0 684 -11 755 -8 50 -19 126 -25 170 -17
123 -40 237 -89 458 -6 26 -16 68 -22 95 -19 86 -27 115 -74 267 -89 287 -108
341 -180 520 -137 341 -267 598 -468 930 -30 50 -161 247 -206 310 -106 149
-122 171 -146 203 -13 19 -39 51 -57 72 -18 21 -60 71 -93 111 -183 221 -514
553 -756 756 -41 34 -96 80 -122 102 -27 23 -52 41 -56 41 -5 0 -19 10 -32 23
-50 46 -457 327 -474 327 -3 0 -27 15 -53 33 -26 17 -57 37 -69 44 -225 128
-455 245 -623 317 -69 30 -150 65 -180 79 -49 22 -135 53 -405 147 -92 33
-209 66 -380 110 -66 17 -136 36 -155 42 -44 14 -102 26 -277 58 -164 30 -559
85 -728 101 -93 9 -285 14 -570 14 -429 0 -546 -6 -760 -41 -257 -42 -378 -63
-472 -85 -132 -29 -155 -35 -515 -144 -217 -66 -623 -237 -898 -378 -375 -193
-891 -529 -1207 -788 -23 -19 -94 -77 -159 -129 -64 -52 -138 -113 -163 -136
-25 -22 -66 -55 -91 -74 -25 -19 -47 -37 -50 -40 -17 -20 -180 -150 -188 -150
-5 0 -60 48 -124 108 -119 111 -378 349 -502 462 -95 86 -320 274 -418 348
-241 185 -527 380 -709 485 -53 30 -114 66 -135 79 -21 13 -86 48 -144 77 -58
30 -110 57 -116 62 -14 11 -372 174 -464 211 -197 79 -403 149 -603 204 -73
20 -148 41 -167 46 -103 28 -288 64 -495 95 -168 25 -179 26 -820 28 -357 1
-679 0 -715 -2z m4470 -3980 c53 -85 64 -140 56 -293 -4 -74 -11 -202 -15
-285 -9 -196 -23 -224 -116 -225 -28 0 -86 12 -130 26 -67 22 -100 27 -203 28
-111 1 -125 3 -139 21 -35 48 23 186 175 415 131 197 222 309 274 336 23 13
49 23 55 24 7 0 26 -21 43 -47z m2361 -49 c62 -32 108 -212 139 -549 25 -276
4 -361 -90 -358 -52 2 -358 72 -392 89 -58 30 -56 141 7 332 38 112 177 388
227 449 46 57 62 62 109 37z m2044 -1151 c23 -31 45 -79 65 -142 34 -113 42
-163 80 -501 6 -52 16 -130 22 -173 12 -86 7 -137 -17 -173 -13 -20 -24 -24
-69 -24 -79 0 -231 33 -319 70 -81 34 -152 92 -163 134 -10 41 83 359 166 571
50 126 99 226 131 266 37 47 50 43 104 -28z m-4630 -47 c43 -33 82 -109 91
-178 8 -54 -11 -337 -32 -493 -8 -60 -30 -200 -49 -310 -56 -323 -75 -502 -95
-855 -13 -232 -32 -355 -72 -475 -75 -221 -219 -378 -418 -457 -93 -37 -170
-50 -285 -50 -82 0 -112 5 -168 26 -215 81 -395 297 -491 590 -50 154 -68 269
-69 431 -1 266 51 453 224 799 116 230 215 382 360 551 106 124 166 179 282
256 206 138 391 199 588 196 89 -2 98 -4 134 -31z m2069 -91 c249 -53 372
-288 417 -795 15 -172 7 -384 -21 -524 -46 -235 -166 -525 -287 -693 -280
-392 -592 -578 -843 -504 -110 33 -259 184 -344 350 -159 310 -245 771 -191
1025 35 166 124 358 243 525 75 106 282 325 376 399 143 114 326 202 458 221
92 13 116 12 192 -4z m-4567 -827 c33 -36 52 -81 62 -149 21 -133 34 -355 29
-498 -8 -235 -24 -252 -197 -212 -63 15 -116 20 -187 19 -105 -2 -138 7 -149
42 -19 61 122 421 247 628 53 88 141 192 163 192 6 0 21 -10 32 -22z m8708
-1406 c76 -47 161 -337 184 -630 15 -186 -8 -229 -114 -219 -95 9 -321 67
-357 91 -18 12 -40 36 -49 54 -15 29 -15 40 -2 110 35 187 176 518 249 581 40
36 49 37 89 13z"/>
<path d="M18188 5329 c-84 -9 -198 -43 -286 -88 -179 -90 -417 -322 -586 -569
-30 -44 -56 -72 -67 -72 -10 0 -56 9 -101 19 -169 39 -383 35 -520 -9 -79 -25
-168 -77 -221 -128 -87 -84 -136 -247 -107 -354 12 -41 29 -52 65 -38 23 9 25
14 25 81 0 143 47 226 162 281 85 41 151 53 298 52 104 -1 156 -6 228 -23 50
-13 92 -27 92 -32 0 -4 -92 -176 -203 -381 -112 -205 -232 -426 -266 -490 -45
-84 -71 -122 -94 -137 -18 -11 -48 -36 -67 -57 -187 -197 -597 -448 -936 -572
-188 -69 -270 -85 -430 -86 l-141 -1 -78 40 c-90 46 -133 97 -163 194 -21 68
-23 266 -4 352 l13 56 117 32 c164 44 294 99 411 173 294 183 461 408 478 645
6 79 -7 132 -51 201 -55 87 -185 125 -338 99 -95 -16 -163 -46 -272 -117 -133
-86 -307 -269 -426 -445 -70 -103 -191 -349 -230 -468 l-33 -98 -96 -89 c-108
-100 -283 -240 -381 -305 -94 -62 -290 -158 -398 -194 -159 -53 -281 -73 -412
-69 -100 4 -123 8 -178 33 -121 55 -172 147 -172 313 1 138 30 244 115 411
127 253 351 486 568 592 96 46 168 62 260 57 64 -3 72 -6 99 -37 29 -32 30
-37 24 -95 -4 -42 -19 -87 -47 -144 -41 -85 -47 -124 -17 -130 55 -11 201 214
242 374 32 123 16 215 -50 293 -95 113 -357 114 -579 3 -255 -127 -591 -472
-745 -763 -81 -156 -139 -362 -140 -499 0 -72 29 -221 55 -277 70 -155 181
-235 367 -264 96 -15 317 -5 428 20 317 72 630 243 947 518 40 35 76 63 82 63
5 0 9 -39 10 -86 2 -154 59 -309 147 -400 47 -48 152 -104 234 -125 36 -9 109
-14 210 -13 190 1 320 24 529 96 309 107 591 252 844 435 26 19 47 32 47 29 0
-12 -341 -580 -547 -911 -282 -452 -503 -726 -778 -962 -208 -180 -322 -254
-538 -352 -158 -71 -281 -101 -442 -108 -164 -7 -256 10 -374 69 -101 50 -164
110 -215 201 -59 106 -78 176 -78 287 0 173 32 270 126 384 58 71 66 99 35
119 -32 20 -68 -2 -131 -81 -126 -159 -181 -333 -159 -502 23 -165 72 -268
187 -386 164 -168 412 -239 758 -214 401 29 709 141 1009 366 292 219 540 509
802 939 307 502 594 987 626 1058 7 15 16 27 20 27 4 0 22 -26 39 -57 102
-180 240 -292 440 -354 68 -21 94 -24 265 -24 222 0 299 14 555 98 236 77 588
260 815 422 l78 56 -7 -31 c-3 -17 -11 -71 -17 -120 -12 -102 2 -181 47 -257
48 -82 173 -124 301 -102 213 37 361 137 677 460 187 190 208 208 203 178 -35
-199 -33 -295 6 -401 68 -179 186 -291 322 -305 30 -3 55 -10 55 -15 0 -4 -21
-34 -47 -66 -130 -159 -249 -386 -313 -597 -11 -38 -40 -117 -62 -175 -35 -89
-51 -114 -98 -161 -77 -78 -126 -94 -325 -109 -168 -12 -205 -21 -185 -45 19
-23 94 -28 213 -16 292 31 409 68 538 167 144 111 224 253 279 499 36 162 79
303 127 417 44 107 45 108 86 118 221 56 465 204 756 457 46 40 87 73 91 73 4
0 10 -42 13 -92 17 -265 134 -425 362 -494 93 -28 343 -25 495 5 317 64 783
277 1091 497 124 89 252 219 268 272 31 108 -31 108 -134 2 -132 -137 -371
-299 -642 -438 -110 -56 -348 -152 -425 -170 -27 -7 -69 -17 -95 -24 -27 -7
-111 -12 -188 -12 -136 -1 -142 0 -205 30 -36 17 -80 46 -98 65 -79 81 -112
224 -93 398 15 134 21 148 73 161 211 53 361 115 509 212 298 194 461 440 447
674 -8 122 -78 216 -182 246 -62 17 -192 14 -261 -6 -80 -23 -193 -85 -283
-153 -127 -97 -307 -306 -406 -470 -63 -105 -163 -324 -187 -408 -13 -44 -33
-96 -45 -115 -38 -62 -313 -294 -494 -417 -274 -186 -587 -214 -666 -61 -43
84 -52 156 -34 295 32 250 116 488 311 876 92 183 93 193 28 210 -51 14 -154
1 -215 -27 -54 -25 -56 -27 -97 -118 -101 -227 -224 -441 -369 -645 -284 -397
-511 -598 -703 -619 -51 -5 -64 -3 -86 15 -59 46 -70 201 -25 363 74 269 165
483 329 770 142 248 141 272 -7 269 -140 -2 -194 -33 -264 -158 -106 -189
-225 -450 -287 -631 -25 -73 -36 -90 -84 -134 -181 -165 -514 -363 -797 -474
-95 -37 -317 -104 -347 -104 -4 0 34 42 86 93 82 80 100 105 140 187 69 143
88 221 94 385 6 161 -8 260 -58 403 -94 270 -278 488 -535 638 -18 10 -16 16
35 100 122 200 357 489 464 570 91 69 175 106 245 107 116 3 156 -41 157 -173
0 -73 1 -75 25 -75 31 0 47 31 56 106 5 45 2 65 -16 107 -41 96 -127 128 -302
111z m-2573 -973 c24 -17 32 -106 15 -178 -25 -108 -103 -255 -188 -356 -65
-77 -211 -186 -316 -237 -73 -34 -255 -105 -272 -105 -35 0 198 396 346 590
80 104 219 239 281 272 56 30 105 36 134 14z m7165 -6 c29 -29 27 -127 -5
-227 -71 -227 -266 -437 -508 -548 -88 -40 -248 -97 -255 -91 -7 7 68 150 157
299 150 254 368 509 481 565 56 28 104 28 130 2z m-5247 -144 c134 -147 254
-363 299 -539 28 -107 30 -292 5 -387 -29 -111 -91 -221 -171 -304 -167 -173
-391 -219 -593 -121 -86 42 -194 153 -244 249 l-31 61 39 70 c22 39 79 147
128 240 215 415 428 821 438 833 7 9 21 2 56 -29 25 -23 59 -56 74 -73z"/>
</g>
</svg>
